<svg width="28" height="28" viewBox="0 0 28 28" fill="none" xmlns="http://www.w3.org/2000/svg">
<circle cx="13.6054" cy="13.5141" r="12.6537" stroke="#333052" stroke-width="1.72081"/>
<path d="M12.2414 16.1878V16.098C12.2477 15.5115 12.3061 15.0448 12.4164 14.698C12.5299 14.3511 12.6907 14.0705 12.8989 13.8561C13.107 13.6417 13.3576 13.4462 13.6509 13.2696C13.8401 13.1498 14.0103 13.0158 14.1617 12.8676C14.313 12.7194 14.4329 12.5491 14.5211 12.3568C14.6094 12.1644 14.6536 11.9516 14.6536 11.7183C14.6536 11.4376 14.5874 11.1948 14.4549 10.9899C14.3225 10.7849 14.1459 10.6273 13.9252 10.5169C13.7076 10.4034 13.4648 10.3466 13.1968 10.3466C12.954 10.3466 12.7223 10.3971 12.5016 10.498C12.2808 10.5989 12.098 10.7566 11.9529 10.971C11.8079 11.1822 11.7243 11.455 11.7022 11.7892H10.2644C10.2865 11.2216 10.4299 10.7424 10.6948 10.3514C10.9597 9.95724 11.3097 9.65927 11.7448 9.45746C12.1831 9.25566 12.6671 9.15476 13.1968 9.15476C13.777 9.15476 14.2847 9.26355 14.7198 9.48111C15.1549 9.69553 15.4923 9.99665 15.7319 10.3845C15.9747 10.7692 16.0961 11.2185 16.0961 11.7325C16.0961 12.0856 16.041 12.4041 15.9306 12.6879C15.8202 12.9685 15.6626 13.2192 15.4576 13.4399C15.2558 13.6606 15.013 13.8561 14.7293 14.0264C14.4612 14.1935 14.2437 14.3669 14.0766 14.5466C13.9126 14.7264 13.7928 14.9392 13.7171 15.1851C13.6414 15.4311 13.6004 15.7354 13.5941 16.098V16.1878H12.2414ZM12.9556 19.0635C12.6971 19.0635 12.4748 18.9721 12.2887 18.7892C12.1027 18.6031 12.0097 18.3793 12.0097 18.1176C12.0097 17.859 12.1027 17.6383 12.2887 17.4554C12.4748 17.2694 12.6971 17.1763 12.9556 17.1763C13.211 17.1763 13.4317 17.2694 13.6178 17.4554C13.807 17.6383 13.9016 17.859 13.9016 18.1176C13.9016 18.291 13.8574 18.4502 13.7691 18.5953C13.684 18.7371 13.5705 18.8507 13.4286 18.9358C13.2867 19.0209 13.129 19.0635 12.9556 19.0635Z" fill="#39196D"/>
</svg>
